<svg width="89" height="30" viewBox="0 0 89 30" fill="none" xmlns="http://www.w3.org/2000/svg">
<path d="M21.751 10.947H11.429V14.01H18.75C18.387 18.297 14.815 20.137 11.442 20.137C6.998 20.156 3.38 16.57 3.36 12.126C3.36 12.078 3.36 12.03 3.361 11.982C3.361 7.34598 6.95 3.77598 11.452 3.77598C14.924 3.77598 16.97 5.98998 16.97 5.98998L19.114 3.76898C19.114 3.76898 16.36 0.703979 11.339 0.703979C4.946 0.703979 0 6.09998 0 11.928C0 17.639 4.653 23.208 11.501 23.208C17.525 23.208 21.935 19.081 21.935 12.978C21.935 11.691 21.748 10.947 21.748 10.947H21.751Z" fill="#4885ED"/>
<path d="M30.2066 8.72793C25.9706 8.72793 22.9346 12.0399 22.9346 15.8999C22.9346 19.8199 25.8786 23.1919 30.2556 23.1919C34.2176 23.1919 37.4636 20.1639 37.4636 15.9849C37.4636 11.2029 33.6876 8.72693 30.2066 8.72693V8.72793ZM30.2476 11.5689C32.3296 11.5689 34.3036 13.2529 34.3036 15.9659C34.3036 18.6209 32.3386 20.3539 30.2376 20.3539C27.9296 20.3539 26.1156 18.5059 26.1156 15.9449C26.1156 13.4389 27.9126 11.5689 30.2546 11.5689H30.2476Z" fill="#DB3236"/>
<path d="M46.02 8.72793C41.784 8.72793 38.748 12.0399 38.748 15.8999C38.748 19.8199 41.692 23.1919 46.069 23.1919C50.031 23.1919 53.277 20.1639 53.277 15.9849C53.277 11.2029 49.501 8.72693 46.02 8.72693V8.72793ZM46.061 11.5689C48.143 11.5689 50.117 13.2529 50.117 15.9659C50.117 18.6209 48.152 20.3539 46.051 20.3539C43.743 20.3539 41.929 18.5059 41.929 15.9449C41.929 13.4389 43.726 11.5689 46.068 11.5689H46.061Z" fill="#F4C20D"/>
<path d="M61.5299 8.73596C57.6419 8.73596 54.5859 12.141 54.5859 15.963C54.5859 20.316 58.1289 23.203 61.4619 23.203C63.5229 23.203 64.6199 22.384 65.4189 21.445V22.871C65.4189 25.367 63.9039 26.862 61.6169 26.862C59.4079 26.862 58.2999 25.219 57.9069 24.287L55.1269 25.441C56.1129 27.527 58.0979 29.701 61.6399 29.701C65.5149 29.701 68.4519 27.266 68.4519 22.16V9.16996H65.4309V10.396C64.4989 9.38996 63.2219 8.73596 61.5299 8.73596ZM61.8099 11.572C63.7159 11.572 65.6729 13.199 65.6729 15.979C65.6729 18.804 63.7189 20.36 61.7679 20.36C59.6949 20.36 57.7669 18.678 57.7669 16.005C57.7669 13.228 59.7699 11.571 61.8099 11.571V11.572Z" fill="#4885ED"/>
<path d="M81.9521 8.71887C78.2851 8.71887 75.2061 11.6379 75.2061 15.9409C75.2061 20.4969 78.6381 23.1989 82.2961 23.1989C85.3561 23.1989 87.2421 21.5249 88.3551 20.0249L85.8551 18.3609C85.2061 19.3669 84.1211 20.3519 82.3111 20.3519C80.2781 20.3519 79.3431 19.2389 78.7641 18.1589L88.4611 14.1359L87.9671 12.9569C87.0301 10.6489 84.8441 8.71887 81.9521 8.71887ZM82.0781 11.5009C83.4001 11.5009 84.3501 12.2029 84.7541 13.0459L78.2771 15.7529C77.9971 13.6569 79.9841 11.5009 82.0701 11.5009H82.0781Z" fill="#DB3236"/>
<rect x="70.5752" y="1.45227" width="3.186" height="21.317" fill="#3CBA54"/>
</svg>
