<svg width="50" height="26" viewBox="0 0 50 26" fill="none" xmlns="http://www.w3.org/2000/svg">
<path d="M25.8172 16.9097H23.54V16.4684C23.187 16.7273 22.8574 16.9124 22.5515 17.0244C22.2454 17.136 21.8983 17.192 21.5101 17.192C20.3213 17.192 19.3271 16.7273 18.5268 15.7976C17.8323 15.0092 17.4854 14.0739 17.4854 12.9908C17.4854 11.7437 17.9267 10.708 18.8093 9.88403C19.5741 9.1665 20.4744 8.80737 21.5101 8.80737C21.8983 8.80737 22.2454 8.86035 22.5515 8.96619C22.8574 9.07202 23.187 9.2605 23.54 9.53101V9.08972H25.8172V16.9097ZM21.6865 10.855C21.0746 10.855 20.5861 11.0787 20.2216 11.5258C19.9153 11.9142 19.7625 12.4025 19.7625 12.9908C19.7625 13.6736 19.9625 14.215 20.3626 14.6149C20.7157 14.9679 21.157 15.1444 21.6865 15.1444C22.2867 15.1444 22.7634 14.9209 23.1164 14.4736C23.4222 14.0853 23.5754 13.5911 23.5754 12.9908C23.5754 12.3086 23.3812 11.7671 22.9929 11.3669C22.6514 11.0258 22.2161 10.855 21.6865 10.855Z" fill="white"/>
<path d="M35.4021 16.9097H33.125V16.4684C32.7719 16.7274 32.4424 16.9124 32.1365 17.0245C31.8304 17.136 31.4833 17.192 31.0952 17.192C29.9062 17.192 28.912 16.7274 28.1118 15.7976C27.4173 15.0092 27.0703 14.0738 27.0703 12.991C27.0703 11.7437 27.5117 10.7081 28.3942 9.88416C29.1591 9.16644 30.0593 8.80743 31.0952 8.80743C31.4833 8.80743 31.8304 8.86041 32.1365 8.96631C32.4424 9.07208 32.7719 9.26056 33.125 9.53113V5.13574H35.4021V16.9097ZM31.2715 10.855C30.6476 10.855 30.1595 11.0787 29.8064 11.5258C29.5003 11.9142 29.3475 12.4146 29.3475 13.0261C29.3475 13.697 29.5474 14.2326 29.9476 14.6326C30.3007 14.9741 30.7421 15.1446 31.2715 15.1446C31.8717 15.1446 32.3483 14.921 32.7014 14.4736C32.9953 14.0853 33.1426 13.5912 33.1426 12.991C33.1426 12.3086 32.9486 11.7671 32.5601 11.3669C32.2186 11.0258 31.7892 10.855 31.2715 10.855Z" fill="white"/>
<path d="M39.5857 11.1021V16.9097H37.3262V11.1021H36.6025V9.08972H37.3262V7.71289C37.3262 6.78333 37.5497 6.08313 37.9969 5.61218C38.3969 5.18866 38.9385 4.97681 39.621 4.97681C39.9976 4.97681 40.4093 5.02979 40.8566 5.13568V7.16559C40.5505 7.05975 40.2976 7.00671 40.0977 7.00671C39.7562 7.00671 39.5857 7.25397 39.5857 7.74817V9.08972H40.892V11.1021H39.5857Z" fill="white"/>
<path d="M44.2816 16.5035L41.1924 9.08972H43.6106L45.517 13.7499L47.5823 9.08972H50.0008L44.6697 21.0226H42.2866L44.2816 16.5035Z" fill="white"/>
<path d="M13.9791 23.5723C8.14905 23.5723 3.40582 18.8291 3.40582 13.0002C3.40582 7.17017 8.14905 2.427 13.9791 2.427C16.1426 2.427 18.1562 3.08014 19.8333 4.20001L21.1772 2.17981C19.1151 0.802856 16.6392 -0.000366211 13.9791 -0.000366211C6.81073 -0.000366211 0.978516 5.83185 0.978516 13.0002C0.978516 20.1685 6.81073 25.9996 13.9791 25.9996C16.6392 25.9996 19.1151 25.1964 21.1772 23.8195L19.8322 21.7993C18.1552 22.9191 16.1416 23.5723 13.9791 23.5723Z" fill="white"/>
<path d="M13.9791 18.7374C10.8158 18.7374 8.24179 16.1633 8.24179 13.0001C8.24179 9.83569 10.8158 7.26282 13.9791 7.26282C15.153 7.26282 16.2453 7.61694 17.1555 8.22498L18.4994 6.20569C17.2041 5.3396 15.6496 4.83545 13.9791 4.83545C9.47751 4.83545 5.81445 8.49744 5.81445 13.0001C5.81445 17.5017 9.47751 21.1648 13.9791 21.1648C15.6496 21.1648 17.2041 20.6604 18.4994 19.7944L17.1555 17.7753C16.2453 18.3832 15.153 18.7374 13.9791 18.7374Z" fill="white"/>
<path d="M13.9794 13.9875C13.4344 13.9875 12.9908 13.544 12.9908 13.0001C12.9908 12.4551 13.4344 12.0115 13.9794 12.0115C14.1813 12.0115 14.3701 12.0721 14.5267 12.177L15.8705 10.1567C15.3288 9.79492 14.6778 9.58423 13.9794 9.58423C12.096 9.58423 10.5635 11.1167 10.5635 13.0001C10.5635 14.8823 12.096 16.4149 13.9794 16.4149C14.6778 16.4149 15.3288 16.2042 15.8705 15.8422L14.5256 13.8209C14.3689 13.9269 14.1813 13.9875 13.9794 13.9875Z" fill="white"/>
</svg>
