<svg width="124" height="60" viewBox="0 0 124 60" fill="none" xmlns="http://www.w3.org/2000/svg">
<path d="M9.3071 2.06086C9.52042 1.12256 10.1171 0.482605 11.0994 0.141002C12.1653 -0.199867 12.806 0.077227 13.02 0.973016C13.0618 1.14382 13.0618 1.35714 13.02 1.6137C12.7209 8.22876 11.9094 14.9391 10.587 21.7462C9.26385 28.5526 7.45028 36.5224 5.1463 45.6547C5.53042 45.6122 6.22388 45.5272 7.2267 45.3981C8.22878 45.2706 8.96476 45.1848 9.43465 45.143C9.90454 45.1013 10.576 45.0375 11.4513 44.951C12.3258 44.8659 13.0515 44.8227 13.6277 44.8227C14.2039 44.8227 14.8761 44.8337 15.6443 44.8542C16.4126 44.8769 17.1588 44.951 17.8845 45.0793C19.0794 45.2486 19.5266 45.9318 19.2297 47.1274C18.9731 48.2358 18.3544 49.0048 17.3729 49.4314C16.988 49.5597 16.6046 49.6022 16.2205 49.5597C15.2815 49.3456 14.0859 49.2818 12.6359 49.3676C11.1844 49.4534 10.0006 49.5487 9.08279 49.6564C8.165 49.762 6.99139 49.9218 5.56267 50.1359C4.13175 50.3484 2.94861 50.498 2.00957 50.5838C1.19882 50.6263 0.6329 50.3814 0.313289 49.8478C-0.00705451 49.3134 -0.0810927 48.6844 0.0882422 47.9594C1.9238 40.5769 3.63108 32.8527 5.21007 24.7862C5.59419 22.8238 6.22388 19.2392 7.09841 14.0316C7.97221 8.8262 8.70893 4.83546 9.3071 2.06086Z" fill="white"/>
<path d="M31.1358 20.8175C32.2889 21.2442 33.0564 21.9281 33.4405 22.8664C33.8239 23.8055 33.7601 24.8508 33.2484 26.0031C32.437 28.0088 30.8895 29.8861 28.6075 31.6352C26.324 33.3857 23.9446 34.7521 21.4698 35.7329C21.5115 36.5437 21.6508 37.1836 21.8861 37.6535C22.1207 38.1227 22.3758 38.443 22.6536 38.6138C22.9307 38.7839 23.3588 38.8279 23.9343 38.7414C24.5105 38.6563 24.9906 38.5391 25.374 38.3895C25.7589 38.24 26.335 38.0164 27.1033 37.7173C27.8708 37.419 28.447 37.4827 28.8318 37.9094C29.2159 38.336 29.3332 38.8917 29.1837 39.5734C29.0341 40.2566 28.7035 40.769 28.1919 41.1099C26.6114 42.0922 25.0647 42.6779 23.5502 42.8707C22.0349 43.0627 20.6905 42.7219 19.5169 41.8466C18.3426 40.9721 17.6513 39.5316 17.4365 37.5253C17.1389 34.8364 17.5971 32.1058 18.8132 29.3312C20.0293 26.5573 21.7263 24.3171 23.9028 22.6099C26.4201 20.6042 28.8318 20.0075 31.1358 20.8175ZM27.4229 27.9875C27.4654 27.945 27.5929 27.827 27.807 27.6349C28.0203 27.4429 28.1919 27.2831 28.3194 27.1548C28.447 27.0272 28.5965 26.8564 28.7673 26.6431C28.9374 26.4298 29.0656 26.2487 29.1521 26.0984C29.2364 25.9496 29.312 25.7898 29.3757 25.6183C29.4395 25.4482 29.4395 25.2774 29.3757 25.1066C29.312 24.9358 29.1939 24.8083 29.0231 24.7218C28.0841 24.04 26.7191 24.658 24.9268 26.5786C23.4321 28.2016 22.4081 30.1002 21.8539 32.2766C24.0721 30.9102 25.9289 29.4815 27.4229 27.9875Z" fill="white"/>
<path d="M47.8441 21.7778C48.0567 20.9253 48.7179 20.4129 49.8278 20.2414C50.8944 20.0713 51.5131 20.3697 51.6846 21.1379C51.7264 21.3519 51.7264 21.5858 51.6846 21.8416C51.5131 22.6531 51.1179 24.658 50.5 27.8592C49.8805 31.0597 49.3476 33.6745 48.8997 35.7007C48.4518 37.7283 47.9497 39.7237 47.3955 41.6861C47.1389 42.6258 46.4132 43.202 45.2191 43.4146C44.066 43.5854 43.404 43.2225 43.2347 42.3267C43.1907 42.1134 43.1907 41.8569 43.2347 41.5578C43.6188 39.4253 44.1312 36.9923 44.7712 34.2602C43.8747 35.3708 43.0426 36.3311 42.2744 37.1411C41.3354 38.0802 40.2893 38.7319 39.1377 39.094C37.9853 39.4569 36.8652 39.4041 35.7766 38.9335C34.6888 38.465 33.8663 37.5685 33.3121 36.2446C32.7997 34.8797 32.7359 33.407 33.1201 31.828C33.5034 30.2505 34.1969 28.8298 35.2012 27.5712C36.2033 26.3125 37.4091 25.1704 38.8181 24.1463C40.2255 23.1215 41.6982 22.4926 43.2347 22.258C44.7712 22.0241 46.2431 22.1414 47.6513 22.6099C47.6939 22.5256 47.7364 22.3965 47.7796 22.2265C47.8214 22.0557 47.8441 21.9061 47.8441 21.7778ZM37.7288 34.5168C38.1129 34.8159 38.593 34.8159 39.1692 34.5168C39.7454 34.2185 40.4183 33.588 41.1858 32.6277C41.9541 31.6674 42.583 30.8362 43.0749 30.1324C43.5646 29.4272 44.2155 28.4574 45.0263 27.2193C45.3246 26.7501 45.5387 26.4085 45.6677 26.1945C43.3197 26.1945 41.4842 26.7501 40.1618 27.8592C39.2227 28.6275 38.3797 29.7381 37.6327 31.188C36.8865 32.6395 36.9187 33.7478 37.7288 34.5168Z" fill="white"/>
<path d="M70.121 12.6879C70.5044 11.8347 71.1231 11.4293 71.9771 11.4711C72.8296 11.4711 73.1719 11.9417 73.0011 12.88V13.1351C72.5305 14.7581 71.9771 16.4756 71.3371 18.2884C70.6972 20.1035 69.9062 22.1612 68.9679 24.4666C68.0289 26.7713 67.3676 28.4566 66.9843 29.5232C66.7695 30.0796 66.2798 31.3903 65.5116 33.4612C64.7433 35.5313 64.1884 37.0245 63.8475 37.9408C63.5052 38.8593 63.0045 40.0967 62.3433 41.6537C61.6806 43.2122 61.0729 44.6094 60.518 45.8468C60.304 46.2309 60.0063 46.508 59.6222 46.6795C59.2381 46.8496 58.8965 46.8921 58.5981 46.8071C57.5741 47.0204 56.9979 46.615 56.8689 45.591C56.2722 39.6591 54.5649 32.8747 51.7485 25.2348C51.5345 24.6799 51.6305 24.1045 52.0366 23.5056C52.442 22.9089 52.9221 22.568 53.477 22.4815C54.0305 22.3965 54.5224 22.6318 54.949 23.1852C57.3813 27.7096 59.1311 32.959 60.1984 38.9334C60.1984 38.8916 61.4145 35.5833 63.8475 29.0115C64.1884 28.1157 64.5835 27.0374 65.0314 25.778C65.48 24.5209 65.8737 23.378 66.2153 22.354C66.5562 21.3299 66.941 20.2523 67.3676 19.1212C67.7936 17.9901 68.2319 16.8803 68.6805 15.7917C69.1284 14.7038 69.6086 13.6695 70.121 12.6879Z" fill="white"/>
<path d="M82.1543 20.8175C83.3074 21.2442 84.0749 21.9281 84.4591 22.8664C84.8424 23.8055 84.7787 24.8508 84.267 26.0031C83.4555 28.0088 81.908 29.8861 79.626 31.6352C77.3426 33.3857 74.9631 34.7521 72.4883 35.7329C72.5301 36.5437 72.6694 37.1836 72.9047 37.6535C73.1393 38.1227 73.3944 38.443 73.6722 38.6138C73.9493 38.7839 74.3774 38.8279 74.9528 38.7414C75.529 38.6563 76.0092 38.5391 76.3925 38.3895C76.7774 38.24 77.3536 38.0164 78.1218 37.7173C78.8893 37.419 79.4655 37.4827 79.8504 37.9094C80.2345 38.336 80.3518 38.8917 80.2022 39.5734C80.0527 40.2566 79.7221 40.769 79.2104 41.1099C77.6299 42.0922 76.0832 42.6779 74.5687 42.8707C73.0535 43.0627 71.7091 42.7219 70.5355 41.8466C69.3611 40.9721 68.6699 39.5316 68.4551 37.5253C68.1574 34.8364 68.6156 32.1058 69.8317 29.3312C71.0479 26.5573 72.7449 24.3171 74.9213 22.6099C77.4386 20.6042 79.8504 20.0075 82.1543 20.8175ZM78.4414 27.9875C78.4839 27.945 78.6115 27.827 78.8255 27.6349C79.0389 27.4429 79.2104 27.2831 79.338 27.1548C79.4655 27.0272 79.6151 26.8564 79.7859 26.6431C79.9559 26.4298 80.0842 26.2487 80.1707 26.0984C80.255 25.9496 80.3305 25.7898 80.3943 25.6183C80.4581 25.4482 80.4581 25.2774 80.3943 25.1066C80.3305 24.9358 80.2125 24.8083 80.0417 24.7218C79.1026 24.04 77.7377 24.658 75.9454 26.5786C74.4507 28.2016 73.4266 30.1002 72.8724 32.2766C75.0907 30.9102 76.9475 29.4815 78.4414 27.9875Z" fill="white"/>
<path d="M105.776 22.4185C106.16 21.8643 106.694 21.5975 107.376 21.618C108.059 21.64 108.358 22.0344 108.273 22.8019C108.059 24.4249 107.75 26.2172 107.344 28.1796C106.938 30.1427 106.545 31.8925 106.16 33.429C105.776 34.9654 105.317 36.7695 104.785 38.8382C104.25 40.909 103.834 42.6471 103.536 44.0553C103.322 45.1226 102.682 45.7838 101.616 46.0404C100.592 46.253 99.9715 45.9326 99.7589 45.0794C99.7164 44.7817 99.7369 44.4181 99.8227 43.9915C100.079 43.0532 100.526 41.2286 101.167 38.5178C101.807 35.8085 102.319 33.7061 102.704 32.2128C102.063 33.1951 101.519 33.9956 101.072 34.6121C100.623 35.233 100.036 35.9155 99.3103 36.6617C98.5845 37.4094 97.8383 37.9534 97.0701 38.2942C95.5754 39.02 94.2639 38.9019 93.1328 37.9416C92.0025 36.9821 91.4805 35.6919 91.5656 34.0689C91.6081 32.9598 91.8112 31.7327 92.1733 30.3875C92.5354 29.0439 93.0053 27.742 93.5815 26.484C94.1569 25.2247 94.7866 24.1258 95.4698 23.186C95.8539 22.6326 96.3663 22.291 97.0063 22.162C97.6462 22.0344 98.1799 22.1524 98.6065 22.5146C99.0324 22.8774 99.1189 23.4653 98.8624 24.2746C98.6065 25.0421 98.0831 26.2377 97.2936 27.8592C96.5041 29.4815 95.9822 30.7629 95.7256 31.7004V31.8287C95.0432 34.1767 95.2345 35.2843 96.3018 35.1575C96.3869 35.1575 96.4939 35.1253 96.6222 35.0607C96.7497 34.9977 96.8787 34.9017 97.0063 34.7727C97.1338 34.6451 97.2409 34.5278 97.3259 34.4215C97.4109 34.3152 97.5187 34.1972 97.6462 34.0689C97.7738 33.9406 97.8596 33.8563 97.9028 33.8124C98.5845 33.0441 99.3103 32.1593 100.079 31.1572C100.847 30.153 101.465 29.2777 101.935 28.5322C102.404 27.7852 103.033 26.7714 103.824 25.4915C104.613 24.2108 105.178 23.2938 105.52 22.7389C105.606 22.6106 105.691 22.5043 105.776 22.4185Z" fill="white"/>
<path d="M119.988 18.8331C121.141 18.8764 122.015 19.2077 122.613 19.8257C123.209 20.4451 123.498 21.2024 123.477 22.0974C123.454 22.9939 123.285 23.9014 122.965 24.8192C122.645 25.737 122.229 26.558 121.716 27.283C121.374 27.7536 120.948 28.0087 120.436 28.052C119.924 28.0945 119.572 27.945 119.379 27.6034C119.188 27.2625 119.219 26.8146 119.476 26.2589C120.116 25.2341 120.265 24.2856 119.924 23.4103C119.582 22.5365 118.814 22.354 117.619 22.8664C116.595 23.2505 115.699 23.933 114.931 24.9153C114.163 25.8968 113.565 27.1137 113.139 28.5637C112.84 29.631 112.691 30.6551 112.691 31.6359C112.691 32.6182 112.828 33.5887 113.107 34.549C113.384 35.5093 113.715 36.3729 114.098 37.1418C114.482 37.9093 114.995 38.8278 115.635 39.8937C116.445 41.3026 116.637 42.8604 116.211 44.5669C115.784 46.2727 114.889 47.5541 113.522 48.4081C112.412 49.0481 111.346 49.3039 110.322 49.1763C109.298 49.0481 108.39 48.5782 107.601 47.7681C106.812 46.9567 106.376 45.9758 106.289 44.8227C106.204 44.141 106.545 43.4893 107.314 42.8706C108.081 42.2519 108.721 42.2629 109.234 42.9029C110.385 44.4819 111.196 45.2281 111.666 45.1431C112.007 45.1013 112.263 44.8022 112.434 44.2466C112.477 43.9482 112.508 43.7026 112.53 43.5106C112.552 43.3193 112.487 43.073 112.338 42.7753C112.188 42.477 112.051 42.2417 111.922 42.0701C111.794 41.9008 111.635 41.6765 111.442 41.3987C111.25 41.1216 111.11 40.9185 111.026 40.7902C109.618 38.6563 108.87 36.1808 108.785 33.3651C108.699 30.2922 109.383 27.4545 110.834 24.8508C111.816 23.1017 113.127 21.6502 114.771 20.4972C116.413 19.3455 118.153 18.7913 119.988 18.8331Z" fill="white"/>
<path d="M47.0755 56.8323L46.2838 59.0403H45.3125L47.9339 51.6797H49.1354L51.8697 59.0403H50.8294L50.0128 56.8323H47.0755ZM49.7629 55.9959C49.0613 54.0614 48.6757 53.0336 48.5159 52.4721H48.5049C48.3253 53.0967 47.8943 54.3414 47.3291 55.9959H49.7629Z" fill="white"/>
<path d="M56.6998 55.798V59.0403H55.7314V51.6797H58.6087C60.121 51.6797 60.9273 52.4992 60.9273 53.6487C60.9273 54.6053 60.3775 55.1851 59.6723 55.3794C60.272 55.5414 60.7954 55.9893 60.7954 57.267V57.583C60.7954 58.0902 60.7712 58.7324 60.8943 59.0403H59.945C59.8116 58.7228 59.8204 58.1489 59.8204 57.4583V57.3015C59.8204 56.2532 59.5242 55.798 58.2048 55.798H56.6998ZM56.6998 54.977H58.3C59.4253 54.977 59.9201 54.554 59.9201 53.7264C59.9201 52.9442 59.4099 52.5 58.4108 52.5H56.6998V54.977Z" fill="white"/>
<path d="M67.1954 55.5996H63.5338V58.2041H67.5546L67.4292 59.0405H62.5771V51.6799H67.3706V52.5156H63.5338V54.7631H67.1954V55.5996Z" fill="white"/>
<path d="M70.971 59.0403L68.291 51.6797H69.3393L70.636 55.3493C71.015 56.4291 71.3948 57.517 71.5568 58.1899H71.578C71.7327 57.5881 72.1513 56.4519 72.5376 55.3838L73.8864 51.6797H74.8943L72.1241 59.0403H70.971Z" fill="white"/>
<rect x="76.0039" y="51.6798" width="1" height="7.36057" fill="white"/>
<path d="M83.5967 55.5996H79.9352V58.2041H83.9559L83.8306 59.0405H78.9785V51.6799H83.7719V52.5156H79.9352V54.7631H83.5967V55.5996Z" fill="white"/>
<path d="M86.6743 59.0403L84.7002 51.6797H85.7309C86.3041 54.09 87.0995 57.1351 87.2344 57.9766H87.2446C87.4389 57.0266 88.449 53.5585 88.9306 51.6797H89.8799C90.322 53.3239 91.327 57.0618 91.4919 57.9392H91.5022C91.739 56.6681 92.7667 53.1912 93.1735 51.6797H94.1375L91.9897 59.0403H90.9407C90.4957 57.3469 89.5479 53.8378 89.369 52.9552H89.358C89.1374 54.0533 88.1895 57.3491 87.7167 59.0403H86.6743Z" fill="white"/>
</svg>
